<svg viewBox="0 0 46 40" xmlns="http://www.w3.org/2000/svg"><path d="M45.07 36.303L24.814 1.217C24.384.472 23.588.012 22.727.012c-.86 0-1.657.46-2.088 1.205L.342 36.372c-.43.746-.43 1.665 0 2.41.43.746 1.226 1.206 2.087 1.206h40.594c1.332 0 2.41-1.08 2.41-2.41 0-.47-.133-.906-.364-1.275zm-20.275-3.67c0 1.14-.926 2.067-2.068 2.067-1.14 0-2.067-.926-2.067-2.068v-.066c0-1.142.926-2.067 2.067-2.067 1.142 0 2.068.924 2.068 2.066v.066zm0-7.554c0 1.14-.926 2.066-2.068 2.066-1.14 0-2.067-.926-2.067-2.067V14.085c0-1.14.926-2.067 2.067-2.067 1.142 0 2.068.925 2.068 2.066v10.992z" fill-rule="nonzero" fill="#E1E1E1"/></svg>