<svg viewBox="0 0 23 18" xmlns="http://www.w3.org/2000/svg"><g fill-rule="evenodd"><path d="M12.215.1c-.204-.1-.448-.078-.63.06l-6.7 5.056H1.142C.56 5.216.087 5.69.087 6.27v5.46c0 .58.473 1.054 1.055 1.054h3.743l6.7 5.057c.107.08.234.122.362.122.092 0 .183-.02.268-.063.203-.103.332-.31.332-.538V.638c0-.227-.13-.435-.332-.537zm-1.288 15.46L5.52 11.48c-.095-.073-.212-.112-.33-.112H1.706V6.632H5.19c.12 0 .235-.04.33-.11l5.407-4.082v13.12z" fill-rule="nonzero"/><path d="M15.224 5.224c.268-.27.672-.3.903-.07l6.72 6.72c.23.23.198.634-.07.902-.27.27-.673.3-.903.07l-6.72-6.72c-.23-.23-.2-.634.07-.902z"/><path d="M22.776 5.224c-.268-.27-.672-.3-.903-.07l-6.72 6.72c-.23.23-.198.634.07.902.27.27.673.3.903.07l6.72-6.72c.23-.23.2-.634-.07-.902z"/></g></svg>