<svg viewBox="0 0 19 18" xmlns="http://www.w3.org/2000/svg"><path d="M12.128.063c-.205-.102-.448-.08-.63.058l-6.7 5.058H1.054C.474 5.178 0 5.65 0 6.233v5.458c0 .583.473 1.056 1.054 1.056h3.744l6.7 5.057c.107.08.234.12.362.12.09 0 .183-.02.268-.062.203-.1.332-.31.332-.536V.6c0-.227-.13-.435-.332-.537zm-1.288 15.46L5.433 11.44c-.096-.07-.212-.11-.33-.11H1.62V6.594h3.482c.12 0 .235-.04.33-.11L10.84 2.4v13.12zm4.106-9.6c-.386 0-.7.27-.7.6V11.4c0 .33.314.6.7.6.387 0 .7-.27.7-.6V6.524c0-.332-.313-.6-.7-.6zm2.925-2.398c-.386 0-.7.268-.7.6V13.8c0 .33.314.6.7.6.387 0 .7-.27.7-.6V4.124c0-.332-.313-.6-.7-.6z" fill-rule="nonzero"/></svg>